<svg width="12" height="12" viewBox="0 0 12 12" fill="none" xmlns="http://www.w3.org/2000/svg">
<path d="M2 6C2 6.13261 2.05268 6.25979 2.14645 6.35355C2.24021 6.44732 2.36739 6.5 2.5 6.5C2.63261 6.5 2.75979 6.44732 2.85355 6.35355C2.94732 6.25979 3 6.13261 3 6C3 5.86739 2.94732 5.74021 2.85355 5.64645C2.75979 5.55268 2.63261 5.5 2.5 5.5C2.36739 5.5 2.24021 5.55268 2.14645 5.64645C2.05268 5.74021 2 5.86739 2 6ZM5.5 6C5.5 6.13261 5.55268 6.25979 5.64645 6.35355C5.74021 6.44732 5.86739 6.5 6 6.5C6.13261 6.5 6.25979 6.44732 6.35355 6.35355C6.44732 6.25979 6.5 6.13261 6.5 6C6.5 5.86739 6.44732 5.74021 6.35355 5.64645C6.25979 5.55268 6.13261 5.5 6 5.5C5.86739 5.5 5.74021 5.55268 5.64645 5.64645C5.55268 5.74021 5.5 5.86739 5.5 6ZM9 6C9 6.13261 9.05268 6.25979 9.14645 6.35355C9.24021 6.44732 9.36739 6.5 9.5 6.5C9.63261 6.5 9.75979 6.44732 9.85355 6.35355C9.94732 6.25979 10 6.13261 10 6C10 5.86739 9.94732 5.74021 9.85355 5.64645C9.75979 5.55268 9.63261 5.5 9.5 5.5C9.36739 5.5 9.24021 5.55268 9.14645 5.64645C9.05268 5.74021 9 5.86739 9 6Z" stroke="black" stroke-linecap="round" stroke-linejoin="round"/>
</svg>
