<svg width="12" height="12" viewBox="0 0 12 12" fill="none" xmlns="http://www.w3.org/2000/svg">
<path d="M10.2001 5.39992C10.2 4.43552 9.90943 3.49351 9.36621 2.69665C8.82299 1.89979 8.05234 1.28504 7.15468 0.932518C6.25702 0.579994 5.27398 0.506044 4.33369 0.720305C3.39339 0.934566 2.53944 1.4271 1.88312 2.13372C1.2268 2.84034 0.798551 3.72828 0.654186 4.68181C0.509821 5.63535 0.656033 6.61025 1.07377 7.47949C1.4915 8.34872 2.16139 9.07196 2.99612 9.55496C3.83085 10.038 4.79172 10.2583 5.7535 10.1873C5.47485 9.63517 5.35697 9.01582 5.4133 8.39992H5.4001C4.95274 8.40002 4.51102 8.30007 4.10728 8.10739C3.70354 7.91471 3.348 7.63417 3.0667 7.28632C3.04188 7.25567 3.02334 7.22043 3.01214 7.18261C3.00094 7.1448 2.9973 7.10514 3.00142 7.06592C3.00554 7.0267 3.01735 6.98867 3.03617 6.95401C3.05499 6.91935 3.08045 6.88874 3.1111 6.86392C3.14175 6.8391 3.17699 6.82056 3.21481 6.80936C3.25262 6.79815 3.29227 6.79451 3.3315 6.79863C3.37072 6.80276 3.40875 6.81457 3.44341 6.83338C3.47807 6.8522 3.50868 6.87767 3.5335 6.90832C3.77142 7.20362 4.07609 7.43817 4.42242 7.59266C4.76875 7.74715 5.14682 7.81716 5.5255 7.79692C5.65865 7.32916 5.8935 6.8966 6.21326 6.53016C6.53303 6.16372 6.92981 5.87247 7.37523 5.67721C7.82066 5.48196 8.30372 5.38754 8.78988 5.40069C9.27604 5.41385 9.75329 5.53426 10.1875 5.75332C10.196 5.63571 10.2002 5.51783 10.2001 5.39992ZM6.3001 4.49992C6.3001 4.34079 6.36332 4.18817 6.47584 4.07565C6.58836 3.96313 6.74097 3.89992 6.9001 3.89992C7.05923 3.89992 7.21184 3.96313 7.32437 4.07565C7.43689 4.18817 7.5001 4.34079 7.5001 4.49992C7.5001 4.65905 7.43689 4.81166 7.32437 4.92418C7.21184 5.0367 7.05923 5.09992 6.9001 5.09992C6.74097 5.09992 6.58836 5.0367 6.47584 4.92418C6.36332 4.81166 6.3001 4.65905 6.3001 4.49992ZM3.3001 4.49992C3.3001 4.34079 3.36332 4.18817 3.47584 4.07565C3.58836 3.96313 3.74097 3.89992 3.9001 3.89992C4.05923 3.89992 4.21184 3.96313 4.32437 4.07565C4.43689 4.18817 4.5001 4.34079 4.5001 4.49992C4.5001 4.65905 4.43689 4.81166 4.32437 4.92418C4.21184 5.0367 4.05923 5.09992 3.9001 5.09992C3.74097 5.09992 3.58836 5.0367 3.47584 4.92418C3.36332 4.81166 3.3001 4.65905 3.3001 4.49992ZM11.4001 8.69992C11.4001 9.416 11.1156 10.1028 10.6093 10.6091C10.1029 11.1155 9.41619 11.3999 8.7001 11.3999C7.98402 11.3999 7.29726 11.1155 6.79091 10.6091C6.28457 10.1028 6.0001 9.416 6.0001 8.69992C6.0001 7.98383 6.28457 7.29708 6.79091 6.79073C7.29726 6.28438 7.98402 5.99992 8.7001 5.99992C9.41619 5.99992 10.1029 6.28438 10.6093 6.79073C11.1156 7.29708 11.4001 7.98383 11.4001 8.69992ZM9.0001 7.49992C9.0001 7.42035 8.9685 7.34404 8.91223 7.28778C8.85597 7.23152 8.77967 7.19992 8.7001 7.19992C8.62054 7.19992 8.54423 7.23152 8.48797 7.28778C8.43171 7.34404 8.4001 7.42035 8.4001 7.49992V8.39992H7.5001C7.42054 8.39992 7.34423 8.43152 7.28797 8.48778C7.23171 8.54405 7.2001 8.62035 7.2001 8.69992C7.2001 8.77948 7.23171 8.85579 7.28797 8.91205C7.34423 8.96831 7.42054 8.99992 7.5001 8.99992H8.4001V9.89992C8.4001 9.97948 8.43171 10.0558 8.48797 10.112C8.54423 10.1683 8.62054 10.1999 8.7001 10.1999C8.77967 10.1999 8.85597 10.1683 8.91223 10.112C8.9685 10.0558 9.0001 9.97948 9.0001 9.89992V8.99992H9.9001C9.97967 8.99992 10.056 8.96831 10.1122 8.91205C10.1685 8.85579 10.2001 8.77948 10.2001 8.69992C10.2001 8.62035 10.1685 8.54405 10.1122 8.48778C10.056 8.43152 9.97967 8.39992 9.9001 8.39992H9.0001V7.49992Z" fill="#B3B3B3"/>
</svg>
