<svg width="16" height="16" viewBox="0 0 16 16" fill="none" xmlns="http://www.w3.org/2000/svg">
<path fill-rule="evenodd" clip-rule="evenodd" d="M3.21659 7.33337H5.46992C5.55058 7.33337 5.68325 7.33337 5.80458 7.34404C5.95458 7.35737 6.21059 7.39471 6.48125 7.54604C6.74954 7.69625 6.97104 7.91776 7.12125 8.18604C7.27192 8.45604 7.30925 8.71204 7.32259 8.86204C7.33392 8.98404 7.33325 9.11604 7.33325 9.19671V12.8034C7.33325 12.884 7.33325 13.0167 7.32259 13.138C7.30925 13.288 7.27258 13.544 7.12058 13.8147C6.97037 14.083 6.74887 14.3045 6.48058 14.4547C6.2722 14.5693 6.0417 14.6379 5.80458 14.656C5.68258 14.6667 5.55058 14.6667 5.46992 14.6667H3.19659C3.11659 14.6667 2.98325 14.6667 2.86192 14.656C2.62475 14.6377 2.39425 14.5688 2.18592 14.454C1.91763 14.3038 1.69613 14.0823 1.54592 13.814C1.43112 13.6057 1.36224 13.3752 1.34392 13.138C1.33325 13.016 1.33325 12.884 1.33325 12.8034V9.19671C1.33325 9.11671 1.33325 8.98337 1.34392 8.86204C1.35725 8.71204 1.39459 8.45604 1.54592 8.18604C1.69613 7.91776 1.91763 7.69625 2.18592 7.54604C2.39425 7.43124 2.62475 7.36236 2.86192 7.34404C2.98392 7.33337 3.11592 7.33337 3.19659 7.33337H3.21659ZM2.70925 8.83737C2.66659 8.91337 2.66659 9.01337 2.66659 9.21737V12.784C2.66659 12.986 2.66659 13.0874 2.70925 13.1627C2.73929 13.2164 2.7836 13.2607 2.83725 13.2907C2.91325 13.3334 3.01392 13.3334 3.21659 13.3334H5.44992C5.65259 13.3334 5.75392 13.3334 5.82992 13.2907C5.88333 13.2606 5.92739 13.2163 5.95725 13.1627C5.99992 13.0874 5.99992 12.9867 5.99992 12.7834V9.21671C5.99992 9.01404 5.99992 8.91337 5.95725 8.83671C5.92711 8.7833 5.88282 8.73923 5.82925 8.70937C5.75392 8.66671 5.65325 8.66671 5.44992 8.66671H3.21659C3.01392 8.66671 2.91325 8.66671 2.83659 8.70937C2.78317 8.73951 2.73911 8.78381 2.70925 8.83737ZM3.21659 1.33337H5.46992C5.55058 1.33337 5.68325 1.33337 5.80458 1.34404C5.95458 1.35737 6.21059 1.39471 6.48125 1.54604C6.74954 1.69625 6.97104 1.91776 7.12125 2.18604C7.27192 2.45604 7.30925 2.71204 7.32259 2.86204C7.33392 2.98404 7.33325 3.11604 7.33325 3.19671V4.80337C7.33325 4.88404 7.33325 5.01671 7.32259 5.13804C7.30925 5.28804 7.27258 5.54404 7.12058 5.81471C6.97037 6.08299 6.74887 6.30449 6.48058 6.45471C6.2722 6.56928 6.0417 6.63793 5.80458 6.65604C5.68258 6.66737 5.55058 6.66671 5.46992 6.66671H3.19659C3.11659 6.66671 2.98325 6.66671 2.86192 6.65604C2.62475 6.63772 2.39425 6.56884 2.18592 6.45404C1.91763 6.30383 1.69613 6.08232 1.54592 5.81404C1.43112 5.6057 1.36224 5.37521 1.34392 5.13804C1.33325 5.01604 1.33325 4.88404 1.33325 4.80337V3.19671C1.33325 3.11671 1.33325 2.98337 1.34392 2.86204C1.35725 2.71204 1.39459 2.45604 1.54592 2.18604C1.69613 1.91776 1.91763 1.69625 2.18592 1.54604C2.39425 1.43124 2.62475 1.36236 2.86192 1.34404C2.98392 1.33337 3.11592 1.33337 3.19659 1.33337H3.21659ZM2.70925 2.83737C2.66659 2.91337 2.66659 3.01337 2.66659 3.21671V4.78337C2.66659 4.98604 2.66659 5.08737 2.70925 5.16337C2.73939 5.21679 2.78368 5.26085 2.83725 5.29071C2.91325 5.33337 3.01325 5.33337 3.21659 5.33337H5.44992C5.65259 5.33337 5.75392 5.33337 5.82992 5.29071C5.88333 5.26057 5.92739 5.21628 5.95725 5.16271C5.99992 5.08737 5.99992 4.98671 5.99992 4.78337V3.21671C5.99992 3.01404 5.99992 2.91337 5.95725 2.83671C5.92711 2.7833 5.88282 2.73924 5.82925 2.70937C5.75392 2.66671 5.65325 2.66671 5.44992 2.66671H3.21659C3.01392 2.66671 2.91325 2.66671 2.83659 2.70937C2.78317 2.73951 2.73911 2.78381 2.70925 2.83737ZM10.5499 8.66671H12.8033C12.8839 8.66671 13.0166 8.66671 13.1379 8.65604C13.2879 8.64271 13.5439 8.60604 13.8146 8.45404C14.0829 8.30383 14.3044 8.08232 14.4546 7.81404C14.6059 7.54404 14.6426 7.28804 14.6559 7.13804C14.6666 7.01604 14.6666 6.88404 14.6666 6.80337V3.19671C14.6666 3.11671 14.6666 2.98337 14.6559 2.86204C14.6376 2.62487 14.5687 2.39438 14.4539 2.18604C14.3037 1.91776 14.0822 1.69625 13.8139 1.54604C13.6056 1.43124 13.3751 1.36236 13.1379 1.34404C13.0159 1.33337 12.8839 1.33337 12.8033 1.33337H10.5299C10.4499 1.33337 10.3166 1.33337 10.1953 1.34404C10.0453 1.35737 9.78925 1.39471 9.51925 1.54604C9.25097 1.69625 9.02947 1.91776 8.87925 2.18604C8.76445 2.39438 8.69557 2.62487 8.67725 2.86204C8.66658 2.98404 8.66658 3.11604 8.66658 3.19671V6.80337C8.66658 6.88404 8.66658 7.01671 8.67725 7.13804C8.69058 7.28804 8.72792 7.54404 8.87925 7.81471C9.02947 8.08299 9.25097 8.30449 9.51925 8.45471C9.78925 8.60537 10.0453 8.64271 10.1953 8.65604C10.3173 8.66737 10.4493 8.66671 10.5299 8.66671H10.5499ZM10.0426 7.16271C9.99992 7.08671 9.99992 6.98671 9.99992 6.78337V3.21671C9.99992 3.01404 9.99992 2.91337 10.0426 2.83671C10.0727 2.7833 10.117 2.73924 10.1706 2.70937C10.2466 2.66671 10.3466 2.66671 10.5506 2.66671H12.7839C12.9859 2.66671 13.0873 2.66671 13.1626 2.70937C13.2162 2.73942 13.2605 2.78372 13.2906 2.83737C13.3333 2.91337 13.3333 3.01404 13.3333 3.21671V6.78337C13.3333 6.98604 13.3333 7.08671 13.2906 7.16337C13.2604 7.21678 13.2162 7.26085 13.1626 7.29071C13.0873 7.33337 12.9859 7.33337 12.7833 7.33337H10.5499C10.3473 7.33337 10.2466 7.33337 10.1699 7.29071C10.1165 7.26057 10.0724 7.21628 10.0426 7.16271ZM10.5499 14.6667H12.8033C12.8839 14.6667 13.0166 14.6667 13.1379 14.656C13.2879 14.6427 13.5439 14.6054 13.8146 14.454C14.0829 14.3038 14.3044 14.0823 14.4546 13.814C14.6059 13.544 14.6426 13.288 14.6559 13.138C14.6666 13.016 14.6666 12.884 14.6666 12.8034V11.1967C14.6666 11.1167 14.6666 10.9834 14.6559 10.862C14.6376 10.6249 14.5687 10.3944 14.4539 10.186C14.3037 9.91776 14.0822 9.69625 13.8139 9.54604C13.6056 9.43124 13.3751 9.36236 13.1379 9.34404C13.0159 9.33337 12.8839 9.33337 12.8033 9.33337H10.5299C10.4499 9.33337 10.3166 9.33337 10.1953 9.34404C10.0453 9.35737 9.78925 9.39471 9.51925 9.54604C9.25097 9.69625 9.02947 9.91776 8.87925 10.186C8.76445 10.3944 8.69557 10.6249 8.67725 10.862C8.66658 10.984 8.66658 11.116 8.66658 11.1967V12.8034C8.66658 12.884 8.66658 13.0167 8.67725 13.138C8.69058 13.288 8.72792 13.544 8.87925 13.8147C9.02947 14.083 9.25097 14.3045 9.51925 14.4547C9.78925 14.606 10.0453 14.6427 10.1953 14.656C10.3173 14.6667 10.4493 14.6667 10.5299 14.6667H10.5499ZM10.0426 13.1627C9.99992 13.0874 9.99992 12.9867 9.99992 12.7834V11.2167C9.99992 11.014 9.99992 10.9134 10.0426 10.8367C10.0727 10.7833 10.117 10.7392 10.1706 10.7094C10.2466 10.6667 10.3473 10.6667 10.5506 10.6667H12.7839C12.9859 10.6667 13.0873 10.6667 13.1626 10.7094C13.2159 10.7394 13.2606 10.7834 13.2906 10.8374C13.3333 10.9134 13.3333 11.014 13.3333 11.2174V12.784C13.3333 12.986 13.3333 13.0874 13.2906 13.1627C13.2605 13.2164 13.2162 13.2607 13.1626 13.2907C13.0873 13.3334 12.9859 13.3334 12.7833 13.3334H10.5499C10.3473 13.3334 10.2466 13.3334 10.1699 13.2907C10.1165 13.2606 10.0724 13.2163 10.0426 13.1627Z" fill="black"/>
</svg>
