<svg width="12" height="12" viewBox="0 0 12 12" fill="none" xmlns="http://www.w3.org/2000/svg">
<path d="M4.875 0.75V2.25L4.125 2.625L3 1.5L1.5 3L2.625 4.125L2.25 4.875H0.75V7.125H2.25L2.625 7.875L1.5 9L3 10.5L4.125 9.375L4.875 9.75V11.25H7.125V9.75L7.875 9.375L9 10.5L10.5 9L9.375 7.875L9.75 7.125H11.25V4.875H9.75L9.375 4.125L10.5 3L9 1.5L7.875 2.625L7.125 2.25V0.75H4.875Z" stroke="#B3B3B3" stroke-width="0.75" stroke-linecap="round" stroke-linejoin="round"/>
<path d="M6 7.5C6.82843 7.5 7.5 6.82843 7.5 6C7.5 5.17157 6.82843 4.5 6 4.5C5.17157 4.5 4.5 5.17157 4.5 6C4.5 6.82843 5.17157 7.5 6 7.5Z" stroke="#B3B3B3" stroke-width="0.75" stroke-linecap="round" stroke-linejoin="round"/>
</svg>
